<svg width="350" height="146" viewBox="0 0 350 146" fill="none" xmlns="http://www.w3.org/2000/svg">
<rect width="350" height="146" fill="#0E0E0E"/>
<path d="M134.188 74.7188H140.5V79.4375H134.188V90H128.375V79.4375H107.656V76.0312L128.031 44.5H134.188V74.7188ZM114.219 74.7188H128.375V52.4062L127.688 53.6562L114.219 74.7188ZM183.85 70.5938C183.85 77.3646 182.694 82.3958 180.381 85.6875C178.069 88.9792 174.454 90.625 169.537 90.625C164.683 90.625 161.09 89.0208 158.756 85.8125C156.423 82.5833 155.215 77.7708 155.131 71.375V63.6562C155.131 56.9688 156.287 52 158.6 48.75C160.912 45.5 164.537 43.875 169.475 43.875C174.371 43.875 177.975 45.4479 180.287 48.5938C182.6 51.7188 183.787 56.5521 183.85 63.0938V70.5938ZM178.069 62.6875C178.069 57.7917 177.381 54.2292 176.006 52C174.631 49.75 172.454 48.625 169.475 48.625C166.517 48.625 164.36 49.7396 163.006 51.9688C161.652 54.1979 160.954 57.625 160.912 62.25V71.5C160.912 76.4167 161.621 80.0521 163.037 82.4062C164.475 84.7396 166.642 85.9062 169.537 85.9062C172.392 85.9062 174.506 84.8021 175.881 82.5938C177.277 80.3854 178.006 76.9062 178.069 72.1562V62.6875ZM225.262 74.7188H231.575V79.4375H225.262V90H219.45V79.4375H198.731V76.0312L219.106 44.5H225.262V74.7188ZM205.294 74.7188H219.45V52.4062L218.762 53.6562L205.294 74.7188Z" fill="#2CFCFD" fill-opacity="0.8"/>
<path d="M142.188 74.7188H148.5V79.4375H142.188V90H136.375V79.4375H115.656V76.0312L136.031 44.5H142.188V74.7188ZM122.219 74.7188H136.375V52.4062L135.688 53.6562L122.219 74.7188ZM191.85 70.5938C191.85 77.3646 190.694 82.3958 188.381 85.6875C186.069 88.9792 182.454 90.625 177.537 90.625C172.683 90.625 169.09 89.0208 166.756 85.8125C164.423 82.5833 163.215 77.7708 163.131 71.375V63.6562C163.131 56.9688 164.287 52 166.6 48.75C168.912 45.5 172.537 43.875 177.475 43.875C182.371 43.875 185.975 45.4479 188.287 48.5938C190.6 51.7188 191.787 56.5521 191.85 63.0938V70.5938ZM186.069 62.6875C186.069 57.7917 185.381 54.2292 184.006 52C182.631 49.75 180.454 48.625 177.475 48.625C174.517 48.625 172.36 49.7396 171.006 51.9688C169.652 54.1979 168.954 57.625 168.912 62.25V71.5C168.912 76.4167 169.621 80.0521 171.037 82.4062C172.475 84.7396 174.642 85.9062 177.537 85.9062C180.392 85.9062 182.506 84.8021 183.881 82.5938C185.277 80.3854 186.006 76.9062 186.069 72.1562V62.6875ZM233.262 74.7188H239.575V79.4375H233.262V90H227.45V79.4375H206.731V76.0312L227.106 44.5H233.262V74.7188ZM213.294 74.7188H227.45V52.4062L226.762 53.6562L213.294 74.7188Z" fill="#FB203B" fill-opacity="0.8"/>
<path d="M138.188 74.7188H144.5V79.4375H138.188V90H132.375V79.4375H111.656V76.0312L132.031 44.5H138.188V74.7188ZM118.219 74.7188H132.375V52.4062L131.688 53.6562L118.219 74.7188ZM187.85 70.5938C187.85 77.3646 186.694 82.3958 184.381 85.6875C182.069 88.9792 178.454 90.625 173.537 90.625C168.683 90.625 165.09 89.0208 162.756 85.8125C160.423 82.5833 159.215 77.7708 159.131 71.375V63.6562C159.131 56.9688 160.287 52 162.6 48.75C164.912 45.5 168.537 43.875 173.475 43.875C178.371 43.875 181.975 45.4479 184.287 48.5938C186.6 51.7188 187.787 56.5521 187.85 63.0938V70.5938ZM182.069 62.6875C182.069 57.7917 181.381 54.2292 180.006 52C178.631 49.75 176.454 48.625 173.475 48.625C170.517 48.625 168.36 49.7396 167.006 51.9688C165.652 54.1979 164.954 57.625 164.912 62.25V71.5C164.912 76.4167 165.621 80.0521 167.037 82.4062C168.475 84.7396 170.642 85.9062 173.537 85.9062C176.392 85.9062 178.506 84.8021 179.881 82.5938C181.277 80.3854 182.006 76.9062 182.069 72.1562V62.6875ZM229.262 74.7188H235.575V79.4375H229.262V90H223.45V79.4375H202.731V76.0312L223.106 44.5H229.262V74.7188ZM209.294 74.7188H223.45V52.4062L222.762 53.6562L209.294 74.7188Z" fill="white" fill-opacity="0.8"/>
</svg>
