<svg width="383" height="214" viewBox="0 0 383 214" fill="none" xmlns="http://www.w3.org/2000/svg">
<g clip-path="url(#clip0)">
<rect width="383" height="214" fill="#0E0E0E"/>
<path d="M173.828 159.562H88.0469L68.7812 213H40.9375L119.125 8.25H142.75L221.078 213H193.375L173.828 159.562ZM96.2031 137.344H165.812L130.938 41.5781L96.2031 137.344Z" fill="#2CFCFD" fill-opacity="0.8"/>
<path d="M159.828 159.562H74.0469L54.7812 213H26.9375L105.125 8.25H128.75L207.078 213H179.375L159.828 159.562ZM82.2031 137.344H151.812L116.938 41.5781L82.2031 137.344Z" fill="#FB203B" fill-opacity="0.8"/>
<path d="M136.828 159.562H51.0469L31.7812 213H3.9375L82.125 8.25H105.75L184.078 213H156.375L136.828 159.562ZM59.2031 137.344H128.812L93.9375 41.5781L59.2031 137.344Z" fill="white" fill-opacity="0.8"/>
<path d="M253.691 213.663L175.791 9.01957H247.377C271.139 9.01957 290.733 13.6109 306.159 22.7936C321.686 31.9763 332.874 45.563 339.722 63.5536C343.36 73.1111 343.681 81.5911 340.683 88.9935C337.65 96.3022 331.888 101.971 323.395 106C336.403 109.092 347.975 114.996 358.109 123.71C368.309 132.33 375.691 142.637 380.257 154.631C387.248 172.997 386.375 187.427 377.636 197.921C368.898 208.416 352.899 213.663 329.638 213.663H253.691ZM246.131 117.947L274.166 191.596H321.84C335.275 191.596 344.622 188.364 349.881 181.898C355.204 175.339 355.69 166.344 351.339 154.912C341.958 130.269 322.93 117.947 294.256 117.947H246.131ZM237.891 96.3022H281.505C294.137 96.3022 303.09 93.3506 308.362 87.4474C313.735 81.5442 314.495 73.5328 310.643 63.4131C306.363 52.1689 299.751 44.0169 290.806 38.9571C281.826 33.8035 270.168 31.2267 255.83 31.2267H213.119L237.891 96.3022Z" fill="#2CFCFD" fill-opacity="0.8"/>
<path d="M239.842 213.663L161.941 9.01957H233.527C257.289 9.01957 276.883 13.6109 292.31 22.7936C307.836 31.9763 319.024 45.563 325.872 63.5536C329.511 73.1111 329.831 81.5911 326.834 88.9935C323.801 96.3022 318.038 101.971 309.546 106C322.554 109.092 334.125 114.996 344.26 123.71C354.459 132.33 361.842 142.637 366.407 154.631C373.398 172.997 372.525 187.427 363.787 197.921C355.049 208.416 339.049 213.663 315.789 213.663H239.842ZM232.281 117.947L260.317 191.596H307.99C321.425 191.596 330.772 188.364 336.031 181.898C341.355 175.339 341.841 166.344 337.489 154.912C328.108 130.269 309.081 117.947 280.406 117.947H232.281ZM224.042 96.3022H267.655C280.288 96.3022 289.24 93.3506 294.513 87.4474C299.885 81.5442 300.646 73.5328 296.793 63.4131C292.513 52.1689 285.901 44.0169 276.957 38.9571C267.977 33.8035 256.318 31.2267 241.981 31.2267H199.27L224.042 96.3022Z" fill="#FB203B" fill-opacity="0.8"/>
<path d="M216.759 213.663L138.858 9.01957H210.444C234.206 9.01957 253.8 13.6109 269.227 22.7936C284.753 31.9763 295.941 45.563 302.789 63.5536C306.428 73.1111 306.748 81.5911 303.751 88.9935C300.718 96.3022 294.955 101.971 286.463 106C299.471 109.092 311.042 114.996 321.177 123.71C331.376 132.33 338.759 142.637 343.324 154.631C350.315 172.997 349.442 187.427 340.704 197.921C331.966 208.416 315.966 213.663 292.706 213.663H216.759ZM209.198 117.947L237.234 191.596H284.907C298.342 191.596 307.689 188.364 312.948 181.898C318.272 175.339 318.758 166.344 314.406 154.912C305.025 130.269 285.998 117.947 257.323 117.947H209.198ZM200.959 96.3022H244.572C257.205 96.3022 266.157 93.3506 271.43 87.4474C276.802 81.5442 277.563 73.5328 273.71 63.4131C269.43 52.1689 262.818 44.0169 253.874 38.9571C244.894 33.8035 233.235 31.2267 218.898 31.2267H176.187L200.959 96.3022Z" fill="white" fill-opacity="0.8"/>
</g>
<defs>
<clipPath id="clip0">
<rect width="383" height="214" fill="white"/>
</clipPath>
</defs>
</svg>
