<svg width="240" height="203" viewBox="0 0 240 203" fill="none" xmlns="http://www.w3.org/2000/svg">
<rect width="240" height="203" fill="#0E0E0E"/>
<path d="M111.207 112.641H89.7617L84.9453 126H77.9844L97.5312 74.8125H103.438L123.02 126H116.094L111.207 112.641ZM91.8008 107.086H109.203L100.484 83.1445L91.8008 107.086Z" fill="#2CFCFD" fill-opacity="0.8"/>
<path d="M108.207 112.641H86.7617L81.9453 126H74.9844L94.5312 74.8125H100.438L120.02 126H113.094L108.207 112.641ZM88.8008 107.086H106.203L97.4844 83.1445L88.8008 107.086Z" fill="#FB203B" fill-opacity="0.8"/>
<path d="M103.207 112.641H81.7617L76.9453 126H69.9844L89.5312 74.8125H95.4375L115.02 126H108.094L103.207 112.641ZM83.8008 107.086H101.203L92.4844 83.1445L83.8008 107.086Z" fill="white" fill-opacity="0.8"/>
<path d="M130.433 126.236L110.272 74.5779H128.401C134.418 74.5779 139.39 75.7369 143.316 78.0549C147.268 80.3729 150.13 83.8026 151.902 88.3439C152.844 90.7565 152.943 92.8971 152.2 94.7657C151.447 96.6107 150 98.0417 147.858 99.0587C151.158 99.8393 154.101 101.329 156.686 103.529C159.288 105.705 161.179 108.307 162.361 111.335C164.17 115.971 163.979 119.613 161.789 122.262C159.598 124.911 155.557 126.236 149.667 126.236H130.433ZM128.316 102.074L135.572 120.666H147.645C151.047 120.666 153.408 119.85 154.726 118.218C156.06 116.562 156.164 114.291 155.038 111.406C152.61 105.185 147.765 102.074 140.503 102.074H128.316ZM126.183 96.6107H137.228C140.427 96.6107 142.688 95.8656 144.011 94.3754C145.359 92.8853 145.535 90.863 144.538 88.3085C143.43 85.4701 141.738 83.4123 139.462 82.135C137.177 80.8341 134.219 80.1836 130.589 80.1836H119.772L126.183 96.6107Z" fill="#2CFCFD" fill-opacity="0.8"/>
<path d="M127.433 126.236L107.272 74.5779H125.401C131.418 74.5779 136.39 75.7369 140.316 78.0549C144.268 80.3729 147.13 83.8026 148.902 88.3439C149.844 90.7565 149.943 92.8971 149.2 94.7657C148.447 96.6107 147 98.0417 144.858 99.0587C148.158 99.8393 151.101 101.329 153.686 103.529C156.288 105.705 158.179 108.307 159.361 111.335C161.17 115.971 160.979 119.613 158.789 122.262C156.598 124.911 152.557 126.236 146.667 126.236H127.433ZM125.316 102.074L132.572 120.666H144.645C148.047 120.666 150.408 119.85 151.726 118.218C153.06 116.562 153.164 114.291 152.038 111.406C149.61 105.185 144.765 102.074 137.503 102.074H125.316ZM123.183 96.6107H134.228C137.427 96.6107 139.688 95.8656 141.011 94.3754C142.359 92.8853 142.535 90.863 141.538 88.3085C140.43 85.4701 138.738 83.4123 136.462 82.135C134.177 80.8341 131.219 80.1836 127.589 80.1836H116.772L123.183 96.6107Z" fill="#FB203B" fill-opacity="0.8"/>
<path d="M122.433 126.236L102.272 74.5779H120.401C126.418 74.5779 131.39 75.7369 135.316 78.0549C139.268 80.3729 142.13 83.8026 143.902 88.3439C144.844 90.7565 144.943 92.8971 144.2 94.7657C143.447 96.6107 142 98.0417 139.858 99.0587C143.158 99.8393 146.101 101.329 148.686 103.529C151.288 105.705 153.179 108.307 154.361 111.335C156.17 115.971 155.979 119.613 153.789 122.262C151.598 124.911 147.557 126.236 141.667 126.236H122.433ZM120.316 102.074L127.572 120.666H139.645C143.047 120.666 145.408 119.85 146.726 118.218C148.06 116.562 148.164 114.291 147.038 111.406C144.61 105.185 139.765 102.074 132.503 102.074H120.316ZM118.183 96.6107H129.228C132.427 96.6107 134.688 95.8656 136.011 94.3754C137.359 92.8853 137.535 90.863 136.538 88.3085C135.43 85.4701 133.738 83.4123 131.462 82.135C129.177 80.8341 126.219 80.1836 122.589 80.1836H111.772L118.183 96.6107Z" fill="white" fill-opacity="0.8"/>
</svg>
