<svg width="62" height="36" viewBox="0 0 62 36" fill="none" xmlns="http://www.w3.org/2000/svg">
<g clip-path="url(#clip0)">
<rect width="62" height="36" fill="#0E0E0E"/>
<path d="M22.8047 26.0938H8.50781L5.29688 35H0.65625L13.6875 0.875H17.625L30.6797 35H26.0625L22.8047 26.0938ZM9.86719 22.3906H21.4688L15.6562 6.42969L9.86719 22.3906Z" fill="#2CFCFD" fill-opacity="0.8"/>
<path d="M26.8047 26.0938H12.5078L9.29688 35H4.65625L17.6875 0.875H21.625L34.6797 35H30.0625L26.8047 26.0938ZM13.8672 22.3906H25.4688L19.6562 6.42969L13.8672 22.3906Z" fill="#FB203B" fill-opacity="0.8"/>
<path d="M24.8047 26.0938H10.5078L7.29688 35H2.65625L15.6875 0.875H19.625L32.6797 35H28.0625L24.8047 26.0938ZM11.8672 22.3906H23.4688L17.6562 6.42969L11.8672 22.3906Z" fill="white" fill-opacity="0.8"/>
<path d="M34.3267 35.42L21.1747 0.869854H33.2607C37.2724 0.869854 40.5805 1.64502 43.185 3.19535C45.8064 4.74567 47.6952 7.03953 48.8514 10.0769C49.4656 11.6905 49.5197 13.1222 49.0137 14.3719C48.5016 15.6059 47.5287 16.563 46.095 17.2432C48.2911 17.7653 50.2447 18.7619 51.9558 20.2331C53.6778 21.6885 54.9242 23.4287 55.695 25.4536C56.8753 28.5543 56.7278 30.9905 55.2525 32.7623C53.7772 34.5341 51.0761 35.42 47.149 35.42H34.3267ZM33.0503 19.2602L37.7835 31.6945H45.8324C48.1006 31.6945 49.6786 31.1487 50.5665 30.0571C51.4653 28.9498 51.5473 27.4311 50.8127 25.5011C49.2289 21.3405 46.0164 19.2602 41.1753 19.2602H33.0503ZM31.6592 15.6059H39.0225C41.1553 15.6059 42.6668 15.1076 43.5569 14.1109C44.464 13.1143 44.5923 11.7617 43.942 10.0532C43.2193 8.15481 42.103 6.7785 40.5929 5.92424C39.0768 5.05416 37.1084 4.61912 34.6879 4.61912H27.4769L31.6592 15.6059Z" fill="#2CFCFD" fill-opacity="0.8"/>
<path d="M39.3267 35.42L26.1747 0.869854H38.2607C42.2724 0.869854 45.5805 1.64502 48.185 3.19535C50.8064 4.74567 52.6952 7.03953 53.8514 10.0769C54.4656 11.6905 54.5197 13.1222 54.0137 14.3719C53.5016 15.6059 52.5287 16.563 51.095 17.2432C53.2911 17.7653 55.2447 18.7619 56.9558 20.2331C58.6778 21.6885 59.9242 23.4287 60.695 25.4536C61.8753 28.5543 61.7278 30.9905 60.2525 32.7623C58.7772 34.5341 56.0761 35.42 52.149 35.42H39.3267ZM38.0503 19.2602L42.7835 31.6945H50.8324C53.1006 31.6945 54.6786 31.1487 55.5665 30.0571C56.4653 28.9498 56.5473 27.4311 55.8127 25.5011C54.2289 21.3405 51.0164 19.2602 46.1753 19.2602H38.0503ZM36.6592 15.6059H44.0225C46.1553 15.6059 47.6668 15.1076 48.5569 14.1109C49.464 13.1143 49.5923 11.7617 48.942 10.0532C48.2193 8.15481 47.103 6.7785 45.5929 5.92424C44.0768 5.05416 42.1084 4.61912 39.6879 4.61912H32.4769L36.6592 15.6059Z" fill="#FB203B" fill-opacity="0.8"/>
<path d="M36.3267 35.42L23.1747 0.869854H35.2607C39.2724 0.869854 42.5805 1.64502 45.185 3.19535C47.8064 4.74567 49.6952 7.03953 50.8514 10.0769C51.4656 11.6905 51.5197 13.1222 51.0137 14.3719C50.5016 15.6059 49.5287 16.563 48.095 17.2432C50.2911 17.7653 52.2447 18.7619 53.9558 20.2331C55.6778 21.6885 56.9242 23.4287 57.695 25.4536C58.8753 28.5543 58.7278 30.9905 57.2525 32.7623C55.7772 34.5341 53.0761 35.42 49.149 35.42H36.3267ZM35.0503 19.2602L39.7835 31.6945H47.8324C50.1006 31.6945 51.6786 31.1487 52.5665 30.0571C53.4653 28.9498 53.5473 27.4311 52.8127 25.5011C51.2289 21.3405 48.0164 19.2602 43.1753 19.2602H35.0503ZM33.6592 15.6059H41.0225C43.1553 15.6059 44.6668 15.1076 45.5569 14.1109C46.464 13.1143 46.5923 11.7617 45.942 10.0532C45.2193 8.15481 44.103 6.7785 42.5929 5.92424C41.0768 5.05416 39.1084 4.61912 36.6879 4.61912H29.4769L33.6592 15.6059Z" fill="white" fill-opacity="0.8"/>
</g>
<defs>
<clipPath id="clip0">
<rect width="62" height="36" fill="white"/>
</clipPath>
</defs>
</svg>
